<?xml version="1.0" encoding="utf-8"?>
<!-- Generator: Adobe Illustrator 15.0.2, SVG Export Plug-In . SVG Version: 6.00 Build 0)  -->
<!DOCTYPE svg PUBLIC "-//W3C//DTD SVG 1.1//EN" "http://www.w3.org/Graphics/SVG/1.1/DTD/svg11.dtd">
<svg version="1.1" id="Layer_1" xmlns="http://www.w3.org/2000/svg" xmlns:xlink="http://www.w3.org/1999/xlink" x="0px" y="0px"
	 width="588px" height="432px" viewBox="0 0 588 432" enable-background="new 0 0 588 432" xml:space="preserve">
<g id="surface1">
	<path fill="#1C98B4" d="M169.02,28.16l-42.504,42.504c-23.309,23.309-28.371,59.59-11.707,88.066
		c18.562,31.852,33.75,55.371,97.348,118.863c63.492,63.598,80.789,72.246,112.113,90.598
		c28.582,16.664,64.758,11.602,87.961-11.707l42.609-42.504l-82.266-82.16l-33.434,33.434c-4.008-1.793-10.02-4.957-16.98-9.387
		c-14.344-9.176-32.695-23.203-48.832-39.445c-16.242-16.137-32.062-36.281-43.031-52.523c-5.379-8.016-9.703-15.293-12.023-20.039
		c-0.105-0.211-0.105-0.211-0.211-0.422l33.117-33.117L169.02,28.16z M169.02,66.34L213,110.32l-19.301,19.406
		c-4.008,4.008-4.43,8.438-4.324,10.969c0,2.426,0.422,4.113,0.844,5.695c0.949,3.27,2.215,6.117,3.797,9.492
		c3.27,6.539,8.016,14.344,13.922,23.203c11.812,17.508,28.477,38.707,46.195,56.531c17.824,17.719,37.441,32.695,53.578,42.926
		c8.016,5.168,15.082,9.07,21.094,11.707c3.059,1.371,5.801,2.426,9.07,3.059c1.582,0.316,3.375,0.527,5.801,0.316
		c2.426-0.105,6.223-0.949,9.598-4.324L372.574,270l44.086,43.98l-23.52,23.52c-14.66,14.66-37.336,17.824-55.266,7.383
		c-31.852-18.668-43.98-23.625-106.734-86.273c-62.648-62.754-74.672-82.055-93.023-113.484
		c-10.441-17.93-7.277-40.605,7.383-55.266L169.02,66.34z"/>
</g>
</svg>
