<?xml version="1.0" encoding="utf-8"?>
<!-- Generator: Adobe Illustrator 15.0.2, SVG Export Plug-In . SVG Version: 6.00 Build 0)  -->
<!DOCTYPE svg PUBLIC "-//W3C//DTD SVG 1.1//EN" "http://www.w3.org/Graphics/SVG/1.1/DTD/svg11.dtd">
<svg version="1.1" id="Layer_1" xmlns="http://www.w3.org/2000/svg" xmlns:xlink="http://www.w3.org/1999/xlink" x="0px" y="0px"
	 width="588px" height="432px" viewBox="0 0 588 432" enable-background="new 0 0 588 432" xml:space="preserve">
<g id="surface1">
	<path fill="#1C98B4" d="M145.5,54C123.246,54,105,72.246,105,94.5v216c0,22.254,18.246,40.5,40.5,40.5h297
		c22.254,0,40.5-18.246,40.5-40.5v-216c0-22.254-18.246-40.5-40.5-40.5H145.5z M145.5,81h297c0.949,0,1.688,0.316,2.531,0.527
		L294,186.047L142.969,81.527C143.812,81.316,144.551,81,145.5,81z M132,106.734l162,112.219l162-112.219V310.5
		c0,7.594-5.906,13.5-13.5,13.5h-297c-7.594,0-13.5-5.906-13.5-13.5V106.734z"/>
</g>
</svg>
