<?xml version="1.0" encoding="UTF-8"?>
<svg width="178px" height="55px" viewBox="0 0 178 55" version="1.1" xmlns="http://www.w3.org/2000/svg" xmlns:xlink="http://www.w3.org/1999/xlink">
    <!-- Generator: Sketch 51.3 (57544) - http://www.bohemiancoding.com/sketch -->
    <title>logo</title>
    <desc>Created with Sketch.</desc>
    <defs>
        <linearGradient x1="49.9339498%" y1="100%" x2="49.9339498%" y2="0%" id="linearGradient-1">
            <stop stop-color="#64B9A5" offset="0%"></stop>
            <stop stop-color="#63B8A4" offset="71%"></stop>
            <stop stop-color="#3C8B76" offset="97%"></stop>
            <stop stop-color="#3F917B" offset="98%"></stop>
            <stop stop-color="#3D8D77" offset="99%"></stop>
        </linearGradient>
        <linearGradient x1="49.9339498%" y1="0%" x2="49.9339498%" y2="100%" id="linearGradient-2">
            <stop stop-color="#64B9A5" offset="0%"></stop>
            <stop stop-color="#63B8A4" offset="67%"></stop>
            <stop stop-color="#3C8B76" offset="87%"></stop>
            <stop stop-color="#3F917B" offset="98%"></stop>
            <stop stop-color="#3D8D77" offset="99%"></stop>
        </linearGradient>
        <linearGradient x1="50.0660502%" y1="0%" x2="50.0660502%" y2="100%" id="linearGradient-3">
            <stop stop-color="#64B9A5" offset="0%"></stop>
            <stop stop-color="#63B8A4" offset="67%"></stop>
            <stop stop-color="#3C8B76" offset="87%"></stop>
            <stop stop-color="#3F917B" offset="98%"></stop>
            <stop stop-color="#3D8D77" offset="99%"></stop>
        </linearGradient>
        <linearGradient x1="50.0660502%" y1="100%" x2="50.0660502%" y2="0%" id="linearGradient-4">
            <stop stop-color="#64B9A5" offset="0%"></stop>
            <stop stop-color="#63B8A4" offset="71%"></stop>
            <stop stop-color="#3C8B76" offset="97%"></stop>
            <stop stop-color="#3F917B" offset="98%"></stop>
            <stop stop-color="#3D8D77" offset="99%"></stop>
        </linearGradient>
        <linearGradient x1="-0.220537532%" y1="50%" x2="100%" y2="50%" id="linearGradient-5">
            <stop stop-color="#0097B4" offset="7%"></stop>
            <stop stop-color="#007491" offset="91%"></stop>
        </linearGradient>
    </defs>
    <g id="Symbols" stroke="none" stroke-width="1" fill="none" fill-rule="evenodd">
        <g id="header" transform="translate(-208.000000, -17.000000)">
            <g id="logo">
                <g transform="translate(208.000000, 17.000000)">
                    <g id="img">
                        <path d="M49.0925926,0 C48.2406322,0.0336635479 47.3958923,0.170463531 46.5768519,0.407407407 C41.25,1.93518519 37.6851852,5.8462963 34.3037037,9.96111111 C33.9574074,10.3787037 32.8981481,11.662037 33.4787037,12.1916667 C34.6296296,13.2407407 38.8055556,8.97314815 39.5898148,8.35185185 C40.9444444,7.33333333 42.2787037,5.64259259 44.0712963,5.40833333 C46.4037037,5.10277778 46.5259259,6.93611111 45.1814815,8.41296296 C41.3073949,12.7914682 36.7033899,16.4650231 31.5740741,19.2703704 C30.2194444,19.9935185 28.8342593,20.6962963 27.4388889,21.3074074 C26.0435185,21.9185185 24.3833333,22.3259259 23.3648148,23.4972222 C22.3462963,24.6685185 23.5685185,25.462963 24.8518519,25.462963 C28.3759259,25.462963 31.7981481,23.9046296 35.037037,22.5601852 C38.1942877,21.2711045 41.2369114,19.7174243 44.1324074,17.9157407 C47.1182449,16.1444306 49.7637815,13.8541616 51.9444444,11.1527778 C53.7981481,8.68796296 56.0185185,3.53425926 52.8407407,1.1712963 C51.7285264,0.431616518 50.428074,0.0252251173 49.0925926,0" id="Shape" fill="#0097B4"></path>
                        <path d="M17.5592593,31.9611111 C18.7203704,31.9611111 19.8712963,31.8287037 21.0324074,31.6861111 C23.5583333,31.3907407 26.125,31.0444444 28.5592593,30.4944444 C30.9591519,29.9630134 33.3100458,29.2304885 35.587037,28.3046296 C36.8750581,27.7724218 38.1300788,27.1636178 39.3453704,26.4814815 C41.3437347,25.3343428 43.24759,24.0299124 45.0388889,22.5805556 C45.614146,22.2451778 46.0673169,21.7349145 46.3324074,21.1240741 C46.4685698,20.5325943 46.1133939,19.9391358 45.5277778,19.7796296 C44.6518519,19.6064815 43.6842593,20.3907407 42.9407407,20.7981481 C39.7533988,22.3922265 36.4549875,23.7537999 33.0712963,24.8722222 C30.9557945,25.5459352 28.8031331,26.0968533 26.6240741,26.5222222 C24.4308642,26.95 22.2240741,27.2895062 20.0037037,27.5407407 C16.8636199,27.9229137 13.6918406,27.9707124 10.5416667,27.6833333 C9.64187169,27.5878887 8.7477309,27.4450981 7.86296296,27.2555556 C5.94758967,26.843326 4.08531392,26.2145944 2.31203704,25.3814815 C2.01666667,25.2388889 1.50740741,25.2490741 1.36481481,25.6055556 C1.0287037,26.4611111 2.29166667,27.387963 2.83148148,27.8462963 C3.61685915,28.4956687 4.47883564,29.0463759 5.39814815,29.4861111 C7.81309694,30.6142455 10.3973821,31.3368818 13.0472222,31.625 C14.3494974,31.8182908 15.6625169,31.9305437 16.9787037,31.9611111 L17.5592593,31.9611111" id="Shape" fill="#64B9A5"></path>
                        <path d="M18.7611111,37.6037037 C21.9401633,37.5507769 25.1034547,37.1442632 28.1925926,36.3916667 C32.1993287,35.481619 36.0737501,34.0646487 39.7222222,32.175 C40.7611111,31.6317901 41.7796296,31.0512346 42.7777778,30.4333333 C45.6830952,28.7624131 48.2665727,26.5859454 50.4064815,24.0064815 C50.9969486,23.2216287 51.5118939,22.3827112 51.9444444,21.5009259 C52.6523354,20.3330852 53.0875296,19.0205394 53.2175926,17.6611111 C53.2175926,17.0703704 53.0342593,16.062037 52.1990741,16.5203704 C51.3638889,16.9787037 51.1296296,17.8546296 50.6509259,18.4657407 C48.740289,20.9254642 46.4586979,23.0730462 43.887963,24.8314815 C41.2918743,26.5953804 38.5326447,28.1063058 35.6481481,29.3435185 C32.7175782,30.6393887 29.6985394,31.7251535 26.6138889,32.5925926 C24.8416667,33.0814815 23.0388889,33.4990741 21.2259259,33.8351852 C19.087037,34.2425926 16.937963,34.537963 14.7787037,34.7722222 C14.2388889,34.8333333 13.1388889,35.2101852 13.1185185,35.8824074 C13.1185185,37.3694444 16.2861111,37.5425926 17.1925926,37.5935185 C17.708642,37.5935185 18.2314815,37.5935185 18.7611111,37.5935185" id="Shape" fill="#0097B4"></path>
                        <path d="M27.112963,47.1472222 C30.0836401,46.9381113 32.9839737,46.145538 35.6481481,44.8148148 C37.9598657,43.8606597 40.1595315,42.6549423 42.2074074,41.2194444 C43.7573694,40.1036491 45.1966821,38.8416925 46.5055556,37.4509259 C47.4633588,36.4302322 48.3579256,35.3519901 49.1842593,34.2222222 C49.9721439,33.2978807 50.477713,32.1665374 50.6407407,30.962963 C50.6407407,30.637037 50.6407407,30.0462963 50.2231481,29.9444444 C49.8055556,29.8425926 49.2046296,30.687963 49.0416667,31.0240741 C47.3895904,33.6468666 45.2284952,35.9118606 42.6861111,37.6851852 C41.9595679,38.2012346 41.2126543,38.6833333 40.4453704,39.1314815 C37.1183928,40.9548593 33.5430352,42.2827512 29.8324074,43.0731481 C28.762963,43.337963 27.6935185,43.5925926 26.6240741,43.8675926 C25.5546296,44.1425926 24.1898148,44.2240741 23.6601852,45.212037 C23.1305556,46.2 24.3425926,46.8416667 25.1064815,46.9842593 C25.7784965,47.1062181 26.4605602,47.1641935 27.1435185,47.1574074" id="Shape" fill="#0097B4"></path>
                        <path d="M25.137037,41.7592593 C26.7288933,41.7852603 28.3200876,41.6762277 29.8935185,41.4333333 C31.9343498,41.0923635 33.9416202,40.5743582 35.8925926,39.8851852 C37.1959275,39.5244608 38.440949,38.9791208 39.5898148,38.2657407 C40.1432617,37.8946427 40.5276525,37.3198871 40.6592593,36.6666667 C40.7509259,35.8212963 39.8342593,35.4953704 39.1212963,35.5157407 C37.5202377,35.7111785 35.9578708,36.1472678 34.487037,36.8092593 C32.9065577,37.3664662 31.2985892,37.8423977 29.6694444,38.2351852 C28.7425926,38.4490741 27.7953704,38.6324074 26.8481481,38.7648148 C23.1611111,39.2638889 19.0157407,39.437037 15.4203704,38.337037 C13.9333333,37.8888889 12.5990741,37.0944444 11.162963,36.5342593 C10.5925926,36.3101852 8.93240741,35.6175926 8.78981481,36.7074074 C8.63703704,37.9601852 10.1546296,38.5407407 11.0509259,38.8972222 C14.0423296,40.1131328 17.1725341,40.9546959 20.3703704,41.4027778 C21.9640136,41.6215104 23.5693957,41.7439548 25.1777778,41.7694444" id="Shape" fill="#64B9A5"></path>
                        <path d="M21.45,47.412037 C21.4467935,47.4425085 21.4467935,47.4732323 21.45,47.5037037 C21.3685185,48.2166667 23.487037,48.6546296 23.9657407,48.787037 C27.0365271,49.7263786 30.2581656,50.072048 33.4583333,49.8055556 C34.5888889,49.7037037 38.7851852,49.387963 37.2472222,47.2490741 C36.4527778,46.1388889 34.7314815,46.9027778 33.7333333,47.2490741 C30.4027778,48.3490741 26.8481481,47.9925926 23.4768519,47.3101852 C23.1101852,47.2388889 21.6740741,46.7805556 21.4398148,47.3814815" id="Shape" fill="#64B9A5"></path>
                        <path d="M43.8777778,46.4342593 C43.7148148,46.2407407 43.2768519,46.3018519 42.9407407,46.5768519 C39.8044448,49.3027274 35.9373453,51.0485882 31.8185185,51.5981481 C30.9864335,51.6015793 30.1989505,51.974794 29.6694444,52.6166667 C29.2416667,53.3601852 29.8935185,54.0833333 30.687963,54.2157407 C32.2431851,54.327248 33.7963473,53.9726448 35.1490741,53.1972222 C36.5750487,52.5495696 37.9475417,51.7901008 39.2537037,50.9259259 C40.2839646,50.2495093 41.2673744,49.5042956 42.1972222,48.6953704 C42.809181,48.2356841 43.3482741,47.6862898 43.7962963,47.0657407 C43.9796296,46.7601852 43.9796296,46.5564815 43.8777778,46.4342593" id="Shape" fill="#0097B4"></path>
                        <path d="M24.6277778,12.6296296 C24.3935185,13.0472222 23.3851852,12.8027778 22.9574074,12.7824074 C19.9018519,12.6194444 16.8462963,12.1712963 13.7907407,12.2324074 C12.4501912,12.230477 11.1161717,12.4190916 9.8287037,12.7925926 C9.11298815,12.9088796 8.54968167,13.4661069 8.42563591,14.1805186 C8.30159015,14.8949303 8.64408152,15.6094344 9.2787037,15.9601852 C10.7861111,16.9787037 12.9962963,16.7444444 14.7277778,16.7342593 C17.9848248,16.7023513 21.2314879,16.3613153 24.4240741,15.7157407 C26.3592593,15.3287037 28.2740741,14.8398148 30.1685185,14.3101852 C31.7268519,13.8722222 33.6212963,12.8435185 35.2611111,13.362963 C38.5203704,14.3814815 32.8472222,17.3759259 31.8185185,17.8546296 C28.4406995,19.4997421 24.9055119,20.7998449 21.2666667,21.7351852 C19.1849246,22.2230909 17.0713387,22.5634429 14.9416667,22.7537037 C12.557169,22.9727105 10.1532414,22.8284748 7.81203704,22.3259259 C5.01111111,21.6842593 0.162962963,20.075 0,16.6018519 C0.035591695,15.4928797 0.420572793,14.4234877 1.1,13.5462963 C4.84814815,8.65740741 12.1,9.16666667 17.5083333,10.0527778 C19.5076156,10.369233 21.4842886,10.81492 23.4259259,11.387037 C23.762037,11.4888889 24.6481481,11.9268519 24.6990741,12.3037037 C24.7339955,12.4060538 24.7339955,12.5170943 24.6990741,12.6194444" id="Shape" fill="#64B9A5"></path>
                    </g>
                    <g id="text" transform="translate(68.000000, 11.000000)" fill-rule="nonzero">
                        <path d="M83.8492308,6.97484424 L84.4158974,6.97484424 C85.0419626,6.95923252 85.6160496,7.3214743 85.8714584,7.89328511 C86.1268673,8.46509591 86.0135314,9.13438661 85.5841026,9.59022885 C85.8927278,9.9005025 86.0652412,10.3208079 86.0635897,10.758434 C86.0648498,11.1934208 85.8922195,11.6108722 85.5841026,11.9179212 C85.2738289,12.2265464 84.8535235,12.3990598 84.4158974,12.3974083 L82.8205128,12.3974201 L82.8205128,6.97484424 L83.8492308,6.97484424 Z M83.8492308,8.00356219 L83.8492308,9.13689552 L84.4158974,9.13689552 C84.724044,9.13689552 84.9738462,8.88709337 84.9738462,8.5789468 C84.9784454,8.4251966 84.9183597,8.27656356 84.8082051,8.16920321 C84.705033,8.06347779 84.5636212,8.00377055 84.4158974,8.00356219 L83.8492308,8.00356219 Z M83.8492308,10.1394596 L83.8492308,11.4558699 L84.4594872,11.4558699 C84.6328395,11.4557173 84.7990361,11.38673 84.9215385,11.264075 C85.0426168,11.1405238 85.1113247,10.9750001 85.1133333,10.8020237 C85.1131807,10.6286714 85.0441935,10.4624748 84.9215385,10.3399724 C84.8026714,10.2119904 84.6340454,10.1419946 84.4594872,10.1481776 L83.8492308,10.1394596 Z" id="Shape" fill="#0097B4"></path>
                        <path d="M89.9082051,11.1851282 L87.9641026,11.1851282 L87.3887179,12.4230769 L86.3076923,12.4230769 L88.4435897,7.90717949 L88.8882051,6.97435897 L89.3415385,7.89846154 L91.5733333,12.4230769 L90.4923077,12.4230769 L89.9082051,11.1851282 Z M88.4435897,10.2610256 L89.4461538,10.2610256 L88.9317949,9.20615385 L88.4435897,10.2610256 Z M88.9317949,9.20615385 L88.4435897,10.2610256 L88.9317949,9.20615385 Z" id="Shape" fill="#0097B4"></path>
                        <path d="M96.2201133,6.97435897 L96.2201133,10.1564103 C96.234336,10.3537612 96.234336,10.5518799 96.2201133,10.7492308 C96.2014156,10.8735191 96.1722521,10.9960059 96.1329338,11.1153846 C96.0899654,11.2454016 96.0344922,11.3709462 95.9672928,11.4902564 C95.7986485,11.7795629 95.5545705,12.0176142 95.261139,12.1789744 C94.9765827,12.3407783 94.6556356,12.4277639 94.3283185,12.4317949 C93.817427,12.4324755 93.3275753,12.2283706 92.9683185,11.8651282 C92.6062509,11.5093607 92.404779,11.021421 92.4103697,10.5138462 L93.3954979,10.5138462 C93.3913711,10.7615315 93.4928093,10.9992773 93.6744723,11.1676923 C93.8479415,11.3409457 94.0831486,11.4381646 94.3283185,11.4379487 C94.4869273,11.4421274 94.6436693,11.4029419 94.7816518,11.3246154 C94.9225017,11.2426189 95.0396553,11.1254653 95.1216518,10.9846154 C95.159482,10.9357289 95.1862519,10.8792145 95.2001133,10.8189744 C95.2135282,10.7557465 95.2135282,10.6904074 95.2001133,10.6271795 C95.2112186,10.4733626 95.2112186,10.3189451 95.2001133,10.1651282 L95.2001133,6.97435897 L96.2201133,6.97435897 Z" id="Shape" fill="#0097B4"></path>
                        <path d="M99.4630769,11.1851282 L97.5538462,11.1851282 L96.9784615,12.4230769 L95.8974359,12.4230769 L98.0333333,7.90717949 L98.4779487,6.97435897 L98.9312821,7.89846154 L101.163077,12.4230769 L100.108205,12.4230769 L99.4630769,11.1851282 Z M97.9984615,10.2610256 L99.0010256,10.2610256 L98.4866667,9.20615385 L97.9984615,10.2610256 Z M98.4866667,9.20615385 L97.9984615,10.2610256 L98.4866667,9.20615385 Z" id="Shape" fill="#0097B4"></path>
                        <polygon id="Shape" fill="#0097B4" points="83.805641 14.8205128 83.805641 17.0697436 85.4969231 17.0697436 85.4969231 14.8205128 86.4820513 14.8205128 86.4820513 20.2517949 85.4969231 20.2517949 85.4969231 18.0374359 83.814359 18.0374359 83.814359 20.234359 82.8205128 20.234359 82.8205128 14.8205128"></polygon>
                        <polygon id="Shape" fill="#0097B4" points="88.1646154 17.0784615 89.6292308 17.0784615 89.6292308 18.0461538 88.1646154 18.0461538 88.1646154 19.2666667 90.1348718 19.2666667 90.1348718 20.2605128 87.1794872 20.2605128 87.1794872 14.8205128 90.1348718 14.8205128 90.1348718 15.805641 88.1646154 15.805641"></polygon>
                        <path d="M94.2323077,19.0312821 L92.3230769,19.0312821 L91.7476923,20.2692308 L90.6666667,20.2692308 L92.8025641,15.7533333 L93.2471795,14.8205128 L93.7005128,15.7446154 L95.9323077,20.2692308 L94.8512821,20.2692308 L94.2323077,19.0312821 Z M92.7676923,18.1071795 L93.8051282,18.1071795 L93.2907692,17.0523077 L92.7676923,18.1071795 Z M93.2558974,17.0523077 L92.7676923,18.1071795 L93.2558974,17.0523077 Z" id="Shape" fill="#0097B4"></path>
                        <polygon id="Shape" fill="#0097B4" points="96.8825641 14.8205128 96.8825641 19.2492308 98.6958974 19.2492308 98.6958974 20.2430769 95.8974359 20.2430769 95.8974359 14.8205128"></polygon>
                        <polygon id="Shape" fill="#0097B4" points="98.5128205 14.8205128 101.581538 14.8205128 101.581538 15.805641 100.517949 15.805641 100.517949 20.2605128 99.5328205 20.2605128 99.5328205 15.805641 98.5128205 15.805641"></polygon>
                        <polygon id="Shape" fill="#0097B4" points="103.011282 14.8205128 103.011282 17.0697436 104.693846 17.0697436 104.693846 14.8205128 105.678974 14.8205128 105.678974 20.2517949 104.693846 20.2517949 104.693846 18.0374359 103.011282 18.0374359 103.011282 20.234359 102 20.234359 102 14.8205128"></polygon>
                        <path d="M88.2961938,27.772308 C87.5381862,28.9237778 86.0715788,29.3782721 84.7952674,28.8572276 C83.5189559,28.336183 82.7894455,26.9851403 83.053859,25.6321643 C83.3182724,24.2791884 84.5027526,23.3021988 85.881322,23.3000003 C86.3320947,23.299792 86.7767603,23.4042436 87.1802964,23.6051285 C87.5821192,23.8144523 87.9309519,24.1125999 88.2002964,24.4769234 L87.3982451,25.052308 C87.224051,24.8148463 86.9972845,24.6209013 86.735681,24.4856413 C86.4674446,24.3433163 86.1674999,24.2713296 85.8638861,24.2764106 C85.0981889,24.269361 84.4051967,24.7287784 84.1135488,25.4367921 C83.8219009,26.1448057 83.9902493,26.9590301 84.5387579,27.4933336 C84.8879446,27.8481869 85.3660529,28.0463502 85.8638861,28.0425644 C86.1678148,28.0413338 86.4669295,27.9665551 86.735681,27.8246157 C87.0145482,27.681265 87.254017,27.4717298 87.4331169,27.2143593 L88.2961938,27.772308 Z M87.4941425,27.2230772 L88.3049117,27.772308 L87.4941425,27.2230772 Z" id="Shape" fill="#0097B4"></path>
                        <polygon id="Shape" fill="#0097B4" points="89.9082051 23.5384615 89.9082051 27.9671795 91.7215385 27.9671795 91.7215385 28.9435897 88.9230769 28.9435897 88.9230769 23.5384615"></polygon>
                        <path d="M92.5258712,23.5384615 L92.5258712,26.694359 C92.4953519,26.9884707 92.528048,27.2857085 92.6217686,27.5661538 C92.6972197,27.7281602 92.8184435,27.864537 92.9704865,27.9584615 C93.1236509,28.0466153 93.2999894,28.0861395 93.4761276,28.0717949 C93.6355563,28.0733299 93.7923532,28.0311153 93.9294609,27.9497436 C94.07564,27.8718401 94.1966002,27.7539039 94.2781789,27.6097436 C94.3959173,27.33524 94.4380584,27.0342317 94.4002301,26.7379487 L94.4002301,23.5384615 L95.3940763,23.5384615 L95.3940763,26.7466667 C95.4346244,27.2192496 95.340947,27.6936802 95.1238199,28.1153846 C94.952742,28.4050441 94.7094283,28.645354 94.417666,28.8128205 C94.1295548,28.9813557 93.8011801,29.0687215 93.4674096,29.065641 C93.1054449,29.0708657 92.7502009,28.9676324 92.4474096,28.7692308 C92.1398382,28.5752979 91.8946712,28.2968366 91.7412558,27.9671795 C91.5760783,27.5644531 91.5102929,27.1278771 91.5494609,26.694359 C91.5540059,26.6217805 91.5540059,26.5489887 91.5494609,26.4764103 L91.5494609,23.5384615 L92.5258712,23.5384615 Z" id="Shape" fill="#0097B4"></path>
                        <path d="M98.3646154,24.8709942 C98.2967593,24.7603757 98.2004029,24.6700415 98.085641,24.6094558 C97.9477061,24.5421867 97.7936539,24.515001 97.6410256,24.5309942 C97.5182641,24.5493878 97.4049384,24.6075821 97.3184615,24.6966353 C97.2303348,24.7817508 97.1774329,24.8968904 97.1702564,25.0191994 C97.1448907,25.09859 97.1448907,25.1839113 97.1702564,25.2633019 C97.2124639,25.3473652 97.2718675,25.4216196 97.3446154,25.4812506 C97.4103196,25.5260516 97.4804268,25.5640263 97.5538462,25.594584 L97.8502564,25.6904814 C97.9893671,25.7221328 98.1262441,25.7629046 98.26,25.8125327 C98.4259819,25.8749393 98.5794983,25.9664587 98.7133333,26.0827891 C98.9252849,26.2450257 99.0931445,26.4578476 99.2015385,26.7017635 C99.3122192,26.938467 99.3602494,27.199631 99.3410256,27.460225 C99.3077997,27.8292514 99.1511635,28.1763082 98.8964103,28.4453532 C98.6421332,28.7165278 98.2985082,28.8867924 97.9287179,28.9248404 C97.5656099,28.9758474 97.1955283,28.9182117 96.8651282,28.7591994 C96.5337927,28.6101429 96.2610133,28.3557531 96.0892308,28.0356096 C96.0406823,27.9432424 95.9998593,27.8470167 95.9671795,27.7479173 C95.9352213,27.6424656 95.9118964,27.5345882 95.8974359,27.4253532 L96.8738462,27.285866 C96.8688343,27.3351406 96.8688343,27.3847966 96.8738462,27.4340712 C96.8861994,27.4767502 96.9037678,27.5177432 96.9261538,27.5561224 C97.0013095,27.6904842 97.1173605,27.7973733 97.2574359,27.8612506 C97.4169053,27.9391512 97.5963523,27.9665245 97.7717949,27.9397122 C97.9138979,27.9170551 98.0451503,27.8499027 98.1466667,27.7479173 C98.2454517,27.6462352 98.3069067,27.5141072 98.3210256,27.3730455 C98.3239466,27.2773673 98.3061013,27.1821923 98.2687179,27.0940712 C98.2284504,26.9892126 98.1549651,26.9004179 98.0594872,26.8412506 C98.0031492,26.7854011 97.9344608,26.7435907 97.8589744,26.7191994 L97.5625641,26.6233019 C97.4256685,26.5940685 97.2915092,26.5532374 97.1615385,26.5012506 C96.9945288,26.4354849 96.8386755,26.3443254 96.6994872,26.2309942 C96.5062447,26.0765082 96.3511334,25.8796361 96.2461538,25.6556096 C96.1398377,25.4298864 96.0918767,25.1810888 96.1066667,24.9320199 C96.1430512,24.5852496 96.2932659,24.2602952 96.5338462,24.0079173 C96.7672823,23.7658462 97.0734079,23.6066608 97.405641,23.554584 C97.7451457,23.5080934 98.0908231,23.562674 98.3994872,23.7115071 C98.7061414,23.860671 98.9589606,24.1013061 99.1230769,24.400225 L98.3646154,24.8709942 Z M98.3646154,24.8709942 L99.2364103,24.400225 L98.3646154,24.8709942 Z" id="Shape" fill="#0097B4"></path>
                        <polygon id="Shape" fill="#0097B4" points="99.3846154 23.5384615 102.453333 23.5384615 102.453333 24.5235897 101.389744 24.5235897 101.389744 28.9435897 100.404615 28.9435897 100.404615 24.5235897 99.3846154 24.5235897"></polygon>
                        <polygon id="Shape" fill="#0097B4" points="103.883077 25.7964103 105.347692 25.7964103 105.347692 26.7815385 103.883077 26.7815385 103.883077 27.9933333 105.827179 27.9933333 105.827179 28.9523077 102.871795 28.9523077 102.871795 23.5384615 105.827179 23.5384615 105.827179 24.5235897 103.856923 24.5235897"></polygon>
                        <path d="M109.741538,28.9436916 L108.590769,28.9436916 L107.492308,27.0954865 L107.344103,27.0954865 L107.344103,28.9436916 L106.358974,28.9436916 L106.358974,23.5385634 L107.806154,23.5385634 C108.281185,23.5334327 108.737743,23.7223531 109.070256,24.0616403 C109.406168,24.3971439 109.597104,24.851006 109.602051,25.3257429 C109.604896,25.8020612 109.412748,26.2588068 109.070256,26.5898454 C108.917332,26.7439395 108.736976,26.8681195 108.538462,26.9559993 L109.741538,28.9436916 Z M107.344103,26.1016403 L107.806154,26.1016403 C108.019585,26.1039989 108.224964,26.0202549 108.375892,25.8693268 C108.52682,25.7183987 108.610564,25.5130206 108.608205,25.299589 C108.607012,25.0871571 108.52249,24.8836795 108.372821,24.7329224 C108.223716,24.5807911 108.019164,24.4958235 107.806154,24.4975377 L107.344103,24.4975377 L107.344103,26.1016403 Z" id="Shape" fill="#0097B4"></path>
                        <path d="M8.16871795,0.871794872 C12.6119594,0.916504248 16.228172,4.45962323 16.3635897,8.90102564 C16.3065602,9.83104912 16.1126793,10.747577 15.7882051,11.6210256 C20.0755693,13.3863917 22.8861371,17.5507049 22.9194872,22.1871795 C22.9609349,25.2342434 21.7397166,28.162643 19.545641,30.2774359 C17.4305447,32.4574464 14.5099558,33.6685762 11.4728205,33.6251282 L0,33.6251282 L0,0.871794872 L8.16871795,0.871794872 Z M8.16871795,11.3333333 C8.68651388,11.3450182 9.1873895,11.1486764 9.55930928,10.7882255 C9.93122906,10.4277746 10.1431581,9.93329252 10.1476923,9.41538462 C10.1573865,8.31133236 9.27271939,7.40717919 8.16871795,7.39282051 L6.52974359,7.39282051 L6.52974359,11.3333333 L8.16871795,11.3333333 Z M16.3635897,22.1784615 C16.381487,20.866474 15.8580082,19.6050791 14.9164103,18.6912821 C13.9574359,17.7323077 12.7892308,17.6712821 11.4292308,17.6712821 L6.52974359,17.6712821 L6.52974359,27.025641 L11.4728205,27.025641 C14.1440064,27.0025457 16.3117741,24.8579626 16.3635897,22.1871795 L16.3635897,22.1784615 Z" id="Shape" fill="#0097B4"></path>
                        <polygon id="Shape" fill="url(#linearGradient-1)" points="27.8974359 17.4358974 34.4969231 17.4358974 34.4533333 33.8517949 27.8974359 33.8517949"></polygon>
                        <polygon id="Shape" fill="url(#linearGradient-2)" points="27.8974359 0.871794872 34.4969231 0.871794872 34.4533333 12.1266667 27.8974359 12.1266667"></polygon>
                        <polygon id="Shape" fill="url(#linearGradient-3)" points="43.5897436 0.871794872 50.1892308 0.871794872 50.145641 12.1266667 43.5897436 12.1266667"></polygon>
                        <polygon id="Shape" fill="url(#linearGradient-4)" points="43.5897436 17.4358974 50.1892308 17.4358974 50.145641 33.8517949 43.5897436 33.8517949"></polygon>
                        <path d="M55.8558974,11.3333333 L20.0512821,11.3333333 C20.1994872,11.3333333 22.5882051,11.4641026 24.985641,17.7235897 L55.8558974,17.7235897 L55.8558974,11.3333333 Z" id="Shape" fill="#0097B4"></path>
                        <path d="M54.1827887,11.3333333 L52.7443271,17.6974359 L50.56484,17.6974359 C50.56484,17.5492308 50.56484,17.4097436 50.56484,17.2615385 C50.5457528,15.2386991 50.8973673,13.2294734 51.6022758,11.3333333 L54.1827887,11.3333333 Z" id="Shape" fill="url(#linearGradient-5)"></path>
                        <path d="M68.9153846,0.0784615385 C71.1332357,0.0621888551 73.330215,0.507522503 75.3666667,1.38615385 C77.3475379,2.23580638 79.1558831,3.44136983 80.7020513,4.94307692 L75.994359,9.64205128 C74.1479908,7.73903655 71.6016346,6.67700429 68.9502564,6.70410256 C66.2968656,6.66662214 63.7465611,7.7303011 61.9061538,9.64205128 C59.2455347,12.128107 58.1528353,15.8674749 59.0562017,19.3949806 C59.9595681,22.9224863 62.7151314,25.6763445 66.2431957,26.5775272 C69.7712599,27.4787099 73.5099507,26.383696 75.994359,23.7215385 L80.6933333,28.4205128 C79.1526834,29.9334616 77.343258,31.1456584 75.3579487,31.9948718 C70.2266013,34.1308571 64.367827,33.5656949 59.7393902,30.4882395 C55.1109534,27.4107842 52.3232031,22.2268578 52.3076923,16.6687179 C52.3267581,7.48774253 59.7519265,0.0431059638 68.9328205,0 L68.9153846,0.0784615385 Z" id="Shape" fill="#0097B4"></path>
                    </g>
                </g>
            </g>
        </g>
    </g>
</svg>